<svg xmlns="http://www.w3.org/2000/svg" version="1.1" xmlns:xlink="http://www.w3.org/1999/xlink" xmlns:svgjs="http://svgjs.dev/svgjs" width="1440" height="560" preserveAspectRatio="none" viewBox="0 0 1440 560"><g mask="url(&quot;#SvgjsMask1134&quot;)" fill="none"><path d="M1325.7 376.45 L1391.23 356.71999999999997L1384.5507903091918 392.6707903091917z" stroke="rgba(249, 211, 66, 1)" stroke-width="1" stroke-dasharray="3, 2"></path><rect width="206.88" height="206.88" clip-path="url(&quot;#SvgjsClipPath1135&quot;)" x="654.45" y="411.58" fill="url(&quot;#SvgjsPattern1136&quot;)" transform="rotate(111.5, 757.89, 515.02)"></rect><circle r="80.34855129036018" cx="1307.43" cy="375.71" fill="rgba(61, 98, 164, 1)"></circle><path d="M598.49 183.41a5.6 5.6 0 1 0-11.18-0.59 5.6 5.6 0 1 0 11.18 0.59zM582.51 182.56a5.6 5.6 0 1 0-11.18-0.59 5.6 5.6 0 1 0 11.18 0.59zM566.54 181.72a5.6 5.6 0 1 0-11.19-0.6 5.6 5.6 0 1 0 11.19 0.6zM550.56 180.87a5.6 5.6 0 1 0-11.19-0.59 5.6 5.6 0 1 0 11.19 0.59zM631.29 169.12a5.6 5.6 0 1 0-11.18-0.59 5.6 5.6 0 1 0 11.18 0.59zM615.32 168.28a5.6 5.6 0 1 0-11.19-0.6 5.6 5.6 0 1 0 11.19 0.6zM599.34 167.43a5.6 5.6 0 1 0-11.19-0.59 5.6 5.6 0 1 0 11.19 0.59zM583.36 166.58a5.6 5.6 0 1 0-11.18-0.59 5.6 5.6 0 1 0 11.18 0.59z" fill="rgba(249, 211, 66, 1)"></path><path d="M1334.53 32.3L1341.56 21.6 1353.55 26.12 1360.58 15.42 1372.57 19.93 1379.6 9.23 1391.59 13.75" stroke="rgba(61, 98, 164, 1)" stroke-width="2.97" stroke-dasharray="2, 2"></path><path d="M1127.74 569.1 L1218.42 615.19L1240.0436045033653 525.1813954966345z" stroke="rgba(61, 98, 164, 1)" stroke-width="1" stroke-dasharray="4, 4"></path><path d="M1387.75 178.25L1387.95 191.06 1375.5 194.06 1375.7 206.87 1363.25 209.87 1363.45 222.68 1351 225.69M1381.42 173.35L1381.62 186.16 1369.17 189.16 1369.38 201.97 1356.93 204.97 1357.13 217.78 1344.68 220.79" stroke="rgba(249, 211, 66, 1)" stroke-width="1.28" stroke-dasharray="2, 2"></path><rect width="240" height="240" clip-path="url(&quot;#SvgjsClipPath1137&quot;)" x="875.48" y="-65.87" fill="url(&quot;#SvgjsPattern1138&quot;)" transform="rotate(161.65, 995.48, 54.13)"></rect><path d="M944.88 354.81 L1035.44 247.95L1059.6134057423928 370.8334057423928z" stroke="rgba(249, 211, 66, 1)" stroke-width="1.03" stroke-dasharray="4, 4"></path><path d="M927.31 379.69a5.6 5.6 0 1 0-3.54-10.62 5.6 5.6 0 1 0 3.54 10.62zM922.26 364.51a5.6 5.6 0 1 0-3.54-10.63 5.6 5.6 0 1 0 3.54 10.63zM917.2 349.33a5.6 5.6 0 1 0-3.54-10.63 5.6 5.6 0 1 0 3.54 10.63zM912.14 334.15a5.6 5.6 0 1 0-3.53-10.63 5.6 5.6 0 1 0 3.53 10.63zM952.6 405a5.6 5.6 0 1 0-3.54-10.63 5.6 5.6 0 1 0 3.54 10.63zM947.55 389.82a5.6 5.6 0 1 0-3.54-10.63 5.6 5.6 0 1 0 3.54 10.63zM942.49 374.64a5.6 5.6 0 1 0-3.54-10.63 5.6 5.6 0 1 0 3.54 10.63zM937.44 359.46a5.6 5.6 0 1 0-3.54-10.63 5.6 5.6 0 1 0 3.54 10.63zM977.9 430.3a5.6 5.6 0 1 0-3.54-10.63 5.6 5.6 0 1 0 3.54 10.63zM972.84 415.12a5.6 5.6 0 1 0-3.54-10.63 5.6 5.6 0 1 0 3.54 10.63zM967.78 399.94a5.6 5.6 0 1 0-3.54-10.63 5.6 5.6 0 1 0 3.54 10.63zM962.73 384.76a5.6 5.6 0 1 0-3.54-10.63 5.6 5.6 0 1 0 3.54 10.63z" fill="rgba(61, 98, 164, 1)"></path><rect width="228" height="228" clip-path="url(&quot;#SvgjsClipPath1139&quot;)" x="740.07" y="237.79" fill="url(&quot;#SvgjsPattern1140&quot;)" transform="rotate(193.24, 854.07, 351.79)"></rect><circle r="46.666666666666664" cx="754.76" cy="273.18" fill="rgba(249, 211, 66, 1)"></circle></g><defs><mask id="SvgjsMask1134"><rect width="1440" height="560" fill="#ffffff"></rect></mask><pattern x="0" y="0" width="8.62" height="8.62" patternUnits="userSpaceOnUse" id="SvgjsPattern1136"><path d="M4.31 1L4.31 7.619999999999999M1 4.31L7.619999999999999 4.31" stroke="rgba(249, 211, 66, 1)" fill="none" stroke-width="1"></path></pattern><clipPath id="SvgjsClipPath1135"><circle r="51.72" cx="757.89" cy="515.02"></circle></clipPath><pattern x="0" y="0" width="6" height="6" patternUnits="userSpaceOnUse" id="SvgjsPattern1138"><path d="M3 1L3 5M1 3L5 3" stroke="rgba(61, 98, 164, 1)" fill="none" stroke-width="1.38"></path></pattern><clipPath id="SvgjsClipPath1137"><circle r="60" cx="995.48" cy="54.13"></circle></clipPath><pattern x="0" y="0" width="228" height="6" patternUnits="userSpaceOnUse" id="SvgjsPattern1140"><rect width="228" height="3" x="0" y="0" fill="rgba(61, 98, 164, 1)"></rect><rect width="228" height="3" x="0" y="3" fill="rgba(0, 0, 0, 0)"></rect></pattern><clipPath id="SvgjsClipPath1139"><circle r="57" cx="854.07" cy="351.79"></circle></clipPath></defs></svg>